M48
; DRILL file {KiCad (5.1.6)-1} date 06/05/20 20:48:43
; FORMAT={-:-/ absolute / inch / decimal}
; #@! TF.CreationDate,2020-06-05T20:48:43-07:00
; #@! TF.GenerationSoftware,Kicad,Pcbnew,(5.1.6)-1
FMAT,2
INCH
T1C0.0157
T2C0.0315
T3C0.0394
T4C0.0400
T5C0.0984
%
G90
G05
T1
X3.3Y-2.75
T2
X2.25Y-2.7567
X2.35Y-2.7567
X2.45Y-2.7567
X2.55Y-2.7567
T3
X2.95Y-3.4
X3.05Y-3.4
X3.15Y-3.4
X3.25Y-3.4
T4
X2.1Y-1.5
X2.1Y-1.6
X2.1Y-1.7
X2.1Y-1.8
X2.1Y-1.9
X2.1Y-2.0
X2.1Y-2.1
X2.1Y-2.2
X2.1Y-2.3
X2.1Y-2.4
X2.1Y-2.5
X2.1Y-2.6
X2.7Y-1.5
X2.7Y-1.6
X2.7Y-1.7
X2.7Y-1.8
X2.7Y-1.9
X2.7Y-2.0
X2.7Y-2.1
X2.7Y-2.2
X2.7Y-2.3
X2.7Y-2.4
X2.7Y-2.5
X2.7Y-2.6
T5
X3.1Y-3.7
X3.1Y-1.6
T0
M30
