G04 #@! TF.GenerationSoftware,KiCad,Pcbnew,(5.1.6)-1*
G04 #@! TF.CreationDate,2020-06-05T20:48:39-07:00*
G04 #@! TF.ProjectId,USBT,55534254-2e6b-4696-9361-645f70636258,rev?*
G04 #@! TF.SameCoordinates,Original*
G04 #@! TF.FileFunction,Copper,L1,Top*
G04 #@! TF.FilePolarity,Positive*
%FSLAX46Y46*%
G04 Gerber Fmt 4.6, Leading zero omitted, Abs format (unit mm)*
G04 Created by KiCad (PCBNEW (5.1.6)-1) date 2020-06-05 20:48:39*
%MOMM*%
%LPD*%
G01*
G04 APERTURE LIST*
G04 #@! TA.AperFunction,ComponentPad*
%ADD10C,1.350000*%
G04 #@! TD*
G04 #@! TA.AperFunction,ComponentPad*
%ADD11R,1.350000X1.350000*%
G04 #@! TD*
G04 #@! TA.AperFunction,ComponentPad*
%ADD12C,1.879600*%
G04 #@! TD*
G04 #@! TA.AperFunction,SMDPad,CuDef*
%ADD13R,1.099820X0.998220*%
G04 #@! TD*
G04 #@! TA.AperFunction,ComponentPad*
%ADD14O,1.700000X1.700000*%
G04 #@! TD*
G04 #@! TA.AperFunction,ComponentPad*
%ADD15R,1.700000X1.700000*%
G04 #@! TD*
G04 #@! TA.AperFunction,ViaPad*
%ADD16C,0.800000*%
G04 #@! TD*
G04 #@! TA.AperFunction,Conductor*
%ADD17C,0.250000*%
G04 #@! TD*
G04 APERTURE END LIST*
D10*
G04 #@! TO.P,U1,P$4*
G04 #@! TO.N,/GND*
X57150000Y-70020000D03*
G04 #@! TO.P,U1,P$3*
G04 #@! TO.N,Net-(U1-PadP$3)*
X59690000Y-70020000D03*
G04 #@! TO.P,U1,P$2*
G04 #@! TO.N,/Data*
X62230000Y-70020000D03*
D11*
G04 #@! TO.P,U1,P$1*
G04 #@! TO.N,/VCC*
X64770000Y-70020000D03*
G04 #@! TD*
D12*
G04 #@! TO.P,B1,24*
G04 #@! TO.N,/VCC*
X68580000Y-38100000D03*
G04 #@! TO.P,B1,23*
G04 #@! TO.N,Net-(B1-Pad23)*
X68580000Y-40640000D03*
G04 #@! TO.P,B1,22*
G04 #@! TO.N,Net-(B1-Pad22)*
X68580000Y-43180000D03*
G04 #@! TO.P,B1,21*
G04 #@! TO.N,Net-(B1-Pad21)*
X68580000Y-45720000D03*
G04 #@! TO.P,B1,20*
G04 #@! TO.N,/Data*
X68580000Y-48260000D03*
G04 #@! TO.P,B1,19*
G04 #@! TO.N,Net-(B1-Pad19)*
X68580000Y-50800000D03*
G04 #@! TO.P,B1,18*
G04 #@! TO.N,Net-(B1-Pad18)*
X68580000Y-53340000D03*
G04 #@! TO.P,B1,17*
G04 #@! TO.N,Net-(B1-Pad17)*
X68580000Y-55880000D03*
G04 #@! TO.P,B1,16*
G04 #@! TO.N,Net-(B1-Pad16)*
X68580000Y-58420000D03*
G04 #@! TO.P,B1,15*
G04 #@! TO.N,Net-(B1-Pad15)*
X68580000Y-60960000D03*
G04 #@! TO.P,B1,14*
G04 #@! TO.N,Net-(B1-Pad14)*
X68580000Y-63500000D03*
G04 #@! TO.P,B1,13*
G04 #@! TO.N,Net-(B1-Pad13)*
X68580000Y-66040000D03*
G04 #@! TO.P,B1,12*
G04 #@! TO.N,Net-(B1-Pad12)*
X53340000Y-66040000D03*
G04 #@! TO.P,B1,11*
G04 #@! TO.N,Net-(B1-Pad11)*
X53340000Y-63500000D03*
G04 #@! TO.P,B1,10*
G04 #@! TO.N,Net-(B1-Pad10)*
X53340000Y-60960000D03*
G04 #@! TO.P,B1,9*
G04 #@! TO.N,Net-(B1-Pad9)*
X53340000Y-58420000D03*
G04 #@! TO.P,B1,8*
G04 #@! TO.N,Net-(B1-Pad8)*
X53340000Y-55880000D03*
G04 #@! TO.P,B1,7*
G04 #@! TO.N,Net-(B1-Pad7)*
X53340000Y-53340000D03*
G04 #@! TO.P,B1,6*
G04 #@! TO.N,/SCL*
X53340000Y-50800000D03*
G04 #@! TO.P,B1,5*
G04 #@! TO.N,/SDA*
X53340000Y-48260000D03*
G04 #@! TO.P,B1,4*
G04 #@! TO.N,Net-(B1-Pad4)*
X53340000Y-45720000D03*
G04 #@! TO.P,B1,3*
G04 #@! TO.N,/GND*
X53340000Y-43180000D03*
G04 #@! TO.P,B1,2*
G04 #@! TO.N,Net-(B1-Pad2)*
X53340000Y-40640000D03*
G04 #@! TO.P,B1,1*
G04 #@! TO.N,Net-(B1-Pad1)*
X53340000Y-38100000D03*
G04 #@! TD*
D13*
G04 #@! TO.P,R1,2*
G04 #@! TO.N,/Data*
X75351640Y-69850000D03*
G04 #@! TO.P,R1,1*
G04 #@! TO.N,/VCC*
X77048360Y-69850000D03*
G04 #@! TD*
D14*
G04 #@! TO.P,J1,4*
G04 #@! TO.N,/GND*
X82550000Y-86360000D03*
G04 #@! TO.P,J1,3*
G04 #@! TO.N,/VCC*
X80010000Y-86360000D03*
G04 #@! TO.P,J1,2*
G04 #@! TO.N,/SCL*
X77470000Y-86360000D03*
D15*
G04 #@! TO.P,J1,1*
G04 #@! TO.N,/SDA*
X74930000Y-86360000D03*
G04 #@! TD*
D13*
G04 #@! TO.P,C1,2*
G04 #@! TO.N,/GND*
X80858360Y-69850000D03*
G04 #@! TO.P,C1,1*
G04 #@! TO.N,/VCC*
X79161640Y-69850000D03*
G04 #@! TD*
D16*
G04 #@! TO.N,/GND*
X83820000Y-69850000D03*
G04 #@! TD*
D17*
G04 #@! TO.N,/VCC*
X68580000Y-38100000D02*
X69850000Y-38100000D01*
X69850000Y-38100000D02*
X71120000Y-39370000D01*
X79161640Y-69850000D02*
X77048360Y-69850000D01*
X79161640Y-85511640D02*
X80010000Y-86360000D01*
X79161640Y-69850000D02*
X79161640Y-85511640D01*
X71120000Y-39370000D02*
X71120000Y-45720000D01*
X77048360Y-51648360D02*
X77048360Y-69850000D01*
X71120000Y-45720000D02*
X77048360Y-51648360D01*
X77048360Y-70271640D02*
X77048360Y-69850000D01*
X76200000Y-71120000D02*
X77048360Y-70271640D01*
X64770000Y-70020000D02*
X67480000Y-70020000D01*
X68580000Y-71120000D02*
X76200000Y-71120000D01*
X67480000Y-70020000D02*
X68580000Y-71120000D01*
G04 #@! TO.N,/GND*
X80858360Y-69850000D02*
X83820000Y-69850000D01*
G04 #@! TO.N,/Data*
X64770000Y-52070000D02*
X68580000Y-48260000D01*
X68580000Y-68580000D02*
X63670000Y-68580000D01*
X75351640Y-69850000D02*
X69850000Y-69850000D01*
X69850000Y-69850000D02*
X68580000Y-68580000D01*
X64770000Y-52070000D02*
X64770000Y-67480000D01*
X64770000Y-67480000D02*
X63585000Y-68665000D01*
X63670000Y-68580000D02*
X63585000Y-68665000D01*
X63585000Y-68665000D02*
X62230000Y-70020000D01*
G04 #@! TO.N,/SCL*
X77470000Y-87630000D02*
X77470000Y-86360000D01*
X76200000Y-88900000D02*
X77470000Y-87630000D01*
X69850000Y-88900000D02*
X76200000Y-88900000D01*
X53340000Y-72390000D02*
X69850000Y-88900000D01*
X54610000Y-50800000D02*
X55880000Y-52070000D01*
X55880000Y-66040000D02*
X53340000Y-68580000D01*
X53340000Y-50800000D02*
X54610000Y-50800000D01*
X55880000Y-52070000D02*
X55880000Y-66040000D01*
X53340000Y-68580000D02*
X53340000Y-72390000D01*
G04 #@! TO.N,/SDA*
X58420000Y-49530000D02*
X57150000Y-48260000D01*
X57150000Y-48260000D02*
X53340000Y-48260000D01*
X74930000Y-86360000D02*
X69850000Y-86360000D01*
X69850000Y-86360000D02*
X55880000Y-72390000D01*
X55880000Y-72390000D02*
X55880000Y-68580000D01*
X55880000Y-68580000D02*
X57150000Y-67310000D01*
X57150000Y-67310000D02*
X58420000Y-66040000D01*
X58420000Y-66040000D02*
X58420000Y-49530000D01*
G04 #@! TD*
M02*
