G04 #@! TF.GenerationSoftware,KiCad,Pcbnew,(5.1.6)-1*
G04 #@! TF.CreationDate,2020-06-05T20:48:39-07:00*
G04 #@! TF.ProjectId,USBT,55534254-2e6b-4696-9361-645f70636258,rev?*
G04 #@! TF.SameCoordinates,Original*
G04 #@! TF.FileFunction,Copper,L2,Bot*
G04 #@! TF.FilePolarity,Positive*
%FSLAX46Y46*%
G04 Gerber Fmt 4.6, Leading zero omitted, Abs format (unit mm)*
G04 Created by KiCad (PCBNEW (5.1.6)-1) date 2020-06-05 20:48:39*
%MOMM*%
%LPD*%
G01*
G04 APERTURE LIST*
G04 #@! TA.AperFunction,ComponentPad*
%ADD10C,1.350000*%
G04 #@! TD*
G04 #@! TA.AperFunction,ComponentPad*
%ADD11R,1.350000X1.350000*%
G04 #@! TD*
G04 #@! TA.AperFunction,ComponentPad*
%ADD12C,1.879600*%
G04 #@! TD*
G04 #@! TA.AperFunction,ComponentPad*
%ADD13O,1.700000X1.700000*%
G04 #@! TD*
G04 #@! TA.AperFunction,ComponentPad*
%ADD14R,1.700000X1.700000*%
G04 #@! TD*
G04 #@! TA.AperFunction,ViaPad*
%ADD15C,0.800000*%
G04 #@! TD*
G04 #@! TA.AperFunction,Conductor*
%ADD16C,0.254000*%
G04 #@! TD*
G04 APERTURE END LIST*
D10*
G04 #@! TO.P,U1,P$4*
G04 #@! TO.N,/GND*
X57150000Y-70020000D03*
G04 #@! TO.P,U1,P$3*
G04 #@! TO.N,Net-(U1-PadP$3)*
X59690000Y-70020000D03*
G04 #@! TO.P,U1,P$2*
G04 #@! TO.N,/Data*
X62230000Y-70020000D03*
D11*
G04 #@! TO.P,U1,P$1*
G04 #@! TO.N,/VCC*
X64770000Y-70020000D03*
G04 #@! TD*
D12*
G04 #@! TO.P,B1,24*
G04 #@! TO.N,/VCC*
X68580000Y-38100000D03*
G04 #@! TO.P,B1,23*
G04 #@! TO.N,Net-(B1-Pad23)*
X68580000Y-40640000D03*
G04 #@! TO.P,B1,22*
G04 #@! TO.N,Net-(B1-Pad22)*
X68580000Y-43180000D03*
G04 #@! TO.P,B1,21*
G04 #@! TO.N,Net-(B1-Pad21)*
X68580000Y-45720000D03*
G04 #@! TO.P,B1,20*
G04 #@! TO.N,/Data*
X68580000Y-48260000D03*
G04 #@! TO.P,B1,19*
G04 #@! TO.N,Net-(B1-Pad19)*
X68580000Y-50800000D03*
G04 #@! TO.P,B1,18*
G04 #@! TO.N,Net-(B1-Pad18)*
X68580000Y-53340000D03*
G04 #@! TO.P,B1,17*
G04 #@! TO.N,Net-(B1-Pad17)*
X68580000Y-55880000D03*
G04 #@! TO.P,B1,16*
G04 #@! TO.N,Net-(B1-Pad16)*
X68580000Y-58420000D03*
G04 #@! TO.P,B1,15*
G04 #@! TO.N,Net-(B1-Pad15)*
X68580000Y-60960000D03*
G04 #@! TO.P,B1,14*
G04 #@! TO.N,Net-(B1-Pad14)*
X68580000Y-63500000D03*
G04 #@! TO.P,B1,13*
G04 #@! TO.N,Net-(B1-Pad13)*
X68580000Y-66040000D03*
G04 #@! TO.P,B1,12*
G04 #@! TO.N,Net-(B1-Pad12)*
X53340000Y-66040000D03*
G04 #@! TO.P,B1,11*
G04 #@! TO.N,Net-(B1-Pad11)*
X53340000Y-63500000D03*
G04 #@! TO.P,B1,10*
G04 #@! TO.N,Net-(B1-Pad10)*
X53340000Y-60960000D03*
G04 #@! TO.P,B1,9*
G04 #@! TO.N,Net-(B1-Pad9)*
X53340000Y-58420000D03*
G04 #@! TO.P,B1,8*
G04 #@! TO.N,Net-(B1-Pad8)*
X53340000Y-55880000D03*
G04 #@! TO.P,B1,7*
G04 #@! TO.N,Net-(B1-Pad7)*
X53340000Y-53340000D03*
G04 #@! TO.P,B1,6*
G04 #@! TO.N,/SCL*
X53340000Y-50800000D03*
G04 #@! TO.P,B1,5*
G04 #@! TO.N,/SDA*
X53340000Y-48260000D03*
G04 #@! TO.P,B1,4*
G04 #@! TO.N,Net-(B1-Pad4)*
X53340000Y-45720000D03*
G04 #@! TO.P,B1,3*
G04 #@! TO.N,/GND*
X53340000Y-43180000D03*
G04 #@! TO.P,B1,2*
G04 #@! TO.N,Net-(B1-Pad2)*
X53340000Y-40640000D03*
G04 #@! TO.P,B1,1*
G04 #@! TO.N,Net-(B1-Pad1)*
X53340000Y-38100000D03*
G04 #@! TD*
D13*
G04 #@! TO.P,J1,4*
G04 #@! TO.N,/GND*
X82550000Y-86360000D03*
G04 #@! TO.P,J1,3*
G04 #@! TO.N,/VCC*
X80010000Y-86360000D03*
G04 #@! TO.P,J1,2*
G04 #@! TO.N,/SCL*
X77470000Y-86360000D03*
D14*
G04 #@! TO.P,J1,1*
G04 #@! TO.N,/SDA*
X74930000Y-86360000D03*
G04 #@! TD*
D15*
G04 #@! TO.N,/GND*
X83820000Y-69850000D03*
G04 #@! TD*
D16*
G04 #@! TO.N,/GND*
G36*
X85700000Y-100940000D02*
G01*
X51460000Y-100940000D01*
X51460000Y-93794344D01*
X76855000Y-93794344D01*
X76855000Y-94165656D01*
X76927439Y-94529834D01*
X77069534Y-94872882D01*
X77275825Y-95181618D01*
X77538382Y-95444175D01*
X77847118Y-95650466D01*
X78190166Y-95792561D01*
X78554344Y-95865000D01*
X78925656Y-95865000D01*
X79289834Y-95792561D01*
X79632882Y-95650466D01*
X79941618Y-95444175D01*
X80204175Y-95181618D01*
X80410466Y-94872882D01*
X80552561Y-94529834D01*
X80625000Y-94165656D01*
X80625000Y-93794344D01*
X80552561Y-93430166D01*
X80410466Y-93087118D01*
X80204175Y-92778382D01*
X79941618Y-92515825D01*
X79632882Y-92309534D01*
X79289834Y-92167439D01*
X78925656Y-92095000D01*
X78554344Y-92095000D01*
X78190166Y-92167439D01*
X77847118Y-92309534D01*
X77538382Y-92515825D01*
X77275825Y-92778382D01*
X77069534Y-93087118D01*
X76927439Y-93430166D01*
X76855000Y-93794344D01*
X51460000Y-93794344D01*
X51460000Y-85510000D01*
X73441928Y-85510000D01*
X73441928Y-87210000D01*
X73454188Y-87334482D01*
X73490498Y-87454180D01*
X73549463Y-87564494D01*
X73628815Y-87661185D01*
X73725506Y-87740537D01*
X73835820Y-87799502D01*
X73955518Y-87835812D01*
X74080000Y-87848072D01*
X75780000Y-87848072D01*
X75904482Y-87835812D01*
X76024180Y-87799502D01*
X76134494Y-87740537D01*
X76231185Y-87661185D01*
X76310537Y-87564494D01*
X76369502Y-87454180D01*
X76391513Y-87381620D01*
X76523368Y-87513475D01*
X76766589Y-87675990D01*
X77036842Y-87787932D01*
X77323740Y-87845000D01*
X77616260Y-87845000D01*
X77903158Y-87787932D01*
X78173411Y-87675990D01*
X78416632Y-87513475D01*
X78623475Y-87306632D01*
X78740000Y-87132240D01*
X78856525Y-87306632D01*
X79063368Y-87513475D01*
X79306589Y-87675990D01*
X79576842Y-87787932D01*
X79863740Y-87845000D01*
X80156260Y-87845000D01*
X80443158Y-87787932D01*
X80713411Y-87675990D01*
X80956632Y-87513475D01*
X81163475Y-87306632D01*
X81285195Y-87124466D01*
X81354822Y-87241355D01*
X81549731Y-87457588D01*
X81783080Y-87631641D01*
X82045901Y-87756825D01*
X82193110Y-87801476D01*
X82423000Y-87680155D01*
X82423000Y-86487000D01*
X82677000Y-86487000D01*
X82677000Y-87680155D01*
X82906890Y-87801476D01*
X83054099Y-87756825D01*
X83316920Y-87631641D01*
X83550269Y-87457588D01*
X83745178Y-87241355D01*
X83894157Y-86991252D01*
X83991481Y-86716891D01*
X83870814Y-86487000D01*
X82677000Y-86487000D01*
X82423000Y-86487000D01*
X82403000Y-86487000D01*
X82403000Y-86233000D01*
X82423000Y-86233000D01*
X82423000Y-85039845D01*
X82677000Y-85039845D01*
X82677000Y-86233000D01*
X83870814Y-86233000D01*
X83991481Y-86003109D01*
X83894157Y-85728748D01*
X83745178Y-85478645D01*
X83550269Y-85262412D01*
X83316920Y-85088359D01*
X83054099Y-84963175D01*
X82906890Y-84918524D01*
X82677000Y-85039845D01*
X82423000Y-85039845D01*
X82193110Y-84918524D01*
X82045901Y-84963175D01*
X81783080Y-85088359D01*
X81549731Y-85262412D01*
X81354822Y-85478645D01*
X81285195Y-85595534D01*
X81163475Y-85413368D01*
X80956632Y-85206525D01*
X80713411Y-85044010D01*
X80443158Y-84932068D01*
X80156260Y-84875000D01*
X79863740Y-84875000D01*
X79576842Y-84932068D01*
X79306589Y-85044010D01*
X79063368Y-85206525D01*
X78856525Y-85413368D01*
X78740000Y-85587760D01*
X78623475Y-85413368D01*
X78416632Y-85206525D01*
X78173411Y-85044010D01*
X77903158Y-84932068D01*
X77616260Y-84875000D01*
X77323740Y-84875000D01*
X77036842Y-84932068D01*
X76766589Y-85044010D01*
X76523368Y-85206525D01*
X76391513Y-85338380D01*
X76369502Y-85265820D01*
X76310537Y-85155506D01*
X76231185Y-85058815D01*
X76134494Y-84979463D01*
X76024180Y-84920498D01*
X75904482Y-84884188D01*
X75780000Y-84871928D01*
X74080000Y-84871928D01*
X73955518Y-84884188D01*
X73835820Y-84920498D01*
X73725506Y-84979463D01*
X73628815Y-85058815D01*
X73549463Y-85155506D01*
X73490498Y-85265820D01*
X73454188Y-85385518D01*
X73441928Y-85510000D01*
X51460000Y-85510000D01*
X51460000Y-70923400D01*
X56426205Y-70923400D01*
X56482630Y-71154621D01*
X56716808Y-71263017D01*
X56967633Y-71323645D01*
X57225465Y-71334174D01*
X57480398Y-71294200D01*
X57722633Y-71205259D01*
X57817370Y-71154621D01*
X57873795Y-70923400D01*
X57150000Y-70199605D01*
X56426205Y-70923400D01*
X51460000Y-70923400D01*
X51460000Y-70095465D01*
X55835826Y-70095465D01*
X55875800Y-70350398D01*
X55964741Y-70592633D01*
X56015379Y-70687370D01*
X56246600Y-70743795D01*
X56970395Y-70020000D01*
X57329605Y-70020000D01*
X58053400Y-70743795D01*
X58284621Y-70687370D01*
X58393017Y-70453192D01*
X58419066Y-70345424D01*
X58430342Y-70402113D01*
X58529093Y-70640518D01*
X58672456Y-70855077D01*
X58854923Y-71037544D01*
X59069482Y-71180907D01*
X59307887Y-71279658D01*
X59560976Y-71330000D01*
X59819024Y-71330000D01*
X60072113Y-71279658D01*
X60310518Y-71180907D01*
X60525077Y-71037544D01*
X60707544Y-70855077D01*
X60850907Y-70640518D01*
X60949658Y-70402113D01*
X60960000Y-70350120D01*
X60970342Y-70402113D01*
X61069093Y-70640518D01*
X61212456Y-70855077D01*
X61394923Y-71037544D01*
X61609482Y-71180907D01*
X61847887Y-71279658D01*
X62100976Y-71330000D01*
X62359024Y-71330000D01*
X62612113Y-71279658D01*
X62850518Y-71180907D01*
X63065077Y-71037544D01*
X63247544Y-70855077D01*
X63390907Y-70640518D01*
X63456928Y-70481130D01*
X63456928Y-70695000D01*
X63469188Y-70819482D01*
X63505498Y-70939180D01*
X63564463Y-71049494D01*
X63643815Y-71146185D01*
X63740506Y-71225537D01*
X63850820Y-71284502D01*
X63970518Y-71320812D01*
X64095000Y-71333072D01*
X65445000Y-71333072D01*
X65569482Y-71320812D01*
X65689180Y-71284502D01*
X65799494Y-71225537D01*
X65896185Y-71146185D01*
X65975537Y-71049494D01*
X66034502Y-70939180D01*
X66070812Y-70819482D01*
X66083072Y-70695000D01*
X66083072Y-69345000D01*
X66070812Y-69220518D01*
X66034502Y-69100820D01*
X65975537Y-68990506D01*
X65896185Y-68893815D01*
X65799494Y-68814463D01*
X65689180Y-68755498D01*
X65569482Y-68719188D01*
X65445000Y-68706928D01*
X64095000Y-68706928D01*
X63970518Y-68719188D01*
X63850820Y-68755498D01*
X63740506Y-68814463D01*
X63643815Y-68893815D01*
X63564463Y-68990506D01*
X63505498Y-69100820D01*
X63469188Y-69220518D01*
X63456928Y-69345000D01*
X63456928Y-69558870D01*
X63390907Y-69399482D01*
X63247544Y-69184923D01*
X63065077Y-69002456D01*
X62850518Y-68859093D01*
X62612113Y-68760342D01*
X62359024Y-68710000D01*
X62100976Y-68710000D01*
X61847887Y-68760342D01*
X61609482Y-68859093D01*
X61394923Y-69002456D01*
X61212456Y-69184923D01*
X61069093Y-69399482D01*
X60970342Y-69637887D01*
X60960000Y-69689880D01*
X60949658Y-69637887D01*
X60850907Y-69399482D01*
X60707544Y-69184923D01*
X60525077Y-69002456D01*
X60310518Y-68859093D01*
X60072113Y-68760342D01*
X59819024Y-68710000D01*
X59560976Y-68710000D01*
X59307887Y-68760342D01*
X59069482Y-68859093D01*
X58854923Y-69002456D01*
X58672456Y-69184923D01*
X58529093Y-69399482D01*
X58430342Y-69637887D01*
X58421512Y-69682280D01*
X58335259Y-69447367D01*
X58284621Y-69352630D01*
X58053400Y-69296205D01*
X57329605Y-70020000D01*
X56970395Y-70020000D01*
X56246600Y-69296205D01*
X56015379Y-69352630D01*
X55906983Y-69586808D01*
X55846355Y-69837633D01*
X55835826Y-70095465D01*
X51460000Y-70095465D01*
X51460000Y-69116600D01*
X56426205Y-69116600D01*
X57150000Y-69840395D01*
X57873795Y-69116600D01*
X57817370Y-68885379D01*
X57583192Y-68776983D01*
X57332367Y-68716355D01*
X57074535Y-68705826D01*
X56819602Y-68745800D01*
X56577367Y-68834741D01*
X56482630Y-68885379D01*
X56426205Y-69116600D01*
X51460000Y-69116600D01*
X51460000Y-45564896D01*
X51765200Y-45564896D01*
X51765200Y-45875104D01*
X51825718Y-46179352D01*
X51944430Y-46465948D01*
X52116773Y-46723877D01*
X52336123Y-46943227D01*
X52406124Y-46990000D01*
X52336123Y-47036773D01*
X52116773Y-47256123D01*
X51944430Y-47514052D01*
X51825718Y-47800648D01*
X51765200Y-48104896D01*
X51765200Y-48415104D01*
X51825718Y-48719352D01*
X51944430Y-49005948D01*
X52116773Y-49263877D01*
X52336123Y-49483227D01*
X52406124Y-49530000D01*
X52336123Y-49576773D01*
X52116773Y-49796123D01*
X51944430Y-50054052D01*
X51825718Y-50340648D01*
X51765200Y-50644896D01*
X51765200Y-50955104D01*
X51825718Y-51259352D01*
X51944430Y-51545948D01*
X52116773Y-51803877D01*
X52336123Y-52023227D01*
X52406124Y-52070000D01*
X52336123Y-52116773D01*
X52116773Y-52336123D01*
X51944430Y-52594052D01*
X51825718Y-52880648D01*
X51765200Y-53184896D01*
X51765200Y-53495104D01*
X51825718Y-53799352D01*
X51944430Y-54085948D01*
X52116773Y-54343877D01*
X52336123Y-54563227D01*
X52406124Y-54610000D01*
X52336123Y-54656773D01*
X52116773Y-54876123D01*
X51944430Y-55134052D01*
X51825718Y-55420648D01*
X51765200Y-55724896D01*
X51765200Y-56035104D01*
X51825718Y-56339352D01*
X51944430Y-56625948D01*
X52116773Y-56883877D01*
X52336123Y-57103227D01*
X52406124Y-57150000D01*
X52336123Y-57196773D01*
X52116773Y-57416123D01*
X51944430Y-57674052D01*
X51825718Y-57960648D01*
X51765200Y-58264896D01*
X51765200Y-58575104D01*
X51825718Y-58879352D01*
X51944430Y-59165948D01*
X52116773Y-59423877D01*
X52336123Y-59643227D01*
X52406124Y-59690000D01*
X52336123Y-59736773D01*
X52116773Y-59956123D01*
X51944430Y-60214052D01*
X51825718Y-60500648D01*
X51765200Y-60804896D01*
X51765200Y-61115104D01*
X51825718Y-61419352D01*
X51944430Y-61705948D01*
X52116773Y-61963877D01*
X52336123Y-62183227D01*
X52406124Y-62230000D01*
X52336123Y-62276773D01*
X52116773Y-62496123D01*
X51944430Y-62754052D01*
X51825718Y-63040648D01*
X51765200Y-63344896D01*
X51765200Y-63655104D01*
X51825718Y-63959352D01*
X51944430Y-64245948D01*
X52116773Y-64503877D01*
X52336123Y-64723227D01*
X52406124Y-64770000D01*
X52336123Y-64816773D01*
X52116773Y-65036123D01*
X51944430Y-65294052D01*
X51825718Y-65580648D01*
X51765200Y-65884896D01*
X51765200Y-66195104D01*
X51825718Y-66499352D01*
X51944430Y-66785948D01*
X52116773Y-67043877D01*
X52336123Y-67263227D01*
X52594052Y-67435570D01*
X52880648Y-67554282D01*
X53184896Y-67614800D01*
X53495104Y-67614800D01*
X53799352Y-67554282D01*
X54085948Y-67435570D01*
X54343877Y-67263227D01*
X54563227Y-67043877D01*
X54735570Y-66785948D01*
X54854282Y-66499352D01*
X54914800Y-66195104D01*
X54914800Y-65884896D01*
X54854282Y-65580648D01*
X54735570Y-65294052D01*
X54563227Y-65036123D01*
X54343877Y-64816773D01*
X54273876Y-64770000D01*
X54343877Y-64723227D01*
X54563227Y-64503877D01*
X54735570Y-64245948D01*
X54854282Y-63959352D01*
X54914800Y-63655104D01*
X54914800Y-63344896D01*
X54854282Y-63040648D01*
X54735570Y-62754052D01*
X54563227Y-62496123D01*
X54343877Y-62276773D01*
X54273876Y-62230000D01*
X54343877Y-62183227D01*
X54563227Y-61963877D01*
X54735570Y-61705948D01*
X54854282Y-61419352D01*
X54914800Y-61115104D01*
X54914800Y-60804896D01*
X54854282Y-60500648D01*
X54735570Y-60214052D01*
X54563227Y-59956123D01*
X54343877Y-59736773D01*
X54273876Y-59690000D01*
X54343877Y-59643227D01*
X54563227Y-59423877D01*
X54735570Y-59165948D01*
X54854282Y-58879352D01*
X54914800Y-58575104D01*
X54914800Y-58264896D01*
X54854282Y-57960648D01*
X54735570Y-57674052D01*
X54563227Y-57416123D01*
X54343877Y-57196773D01*
X54273876Y-57150000D01*
X54343877Y-57103227D01*
X54563227Y-56883877D01*
X54735570Y-56625948D01*
X54854282Y-56339352D01*
X54914800Y-56035104D01*
X54914800Y-55724896D01*
X54854282Y-55420648D01*
X54735570Y-55134052D01*
X54563227Y-54876123D01*
X54343877Y-54656773D01*
X54273876Y-54610000D01*
X54343877Y-54563227D01*
X54563227Y-54343877D01*
X54735570Y-54085948D01*
X54854282Y-53799352D01*
X54914800Y-53495104D01*
X54914800Y-53184896D01*
X54854282Y-52880648D01*
X54735570Y-52594052D01*
X54563227Y-52336123D01*
X54343877Y-52116773D01*
X54273876Y-52070000D01*
X54343877Y-52023227D01*
X54563227Y-51803877D01*
X54735570Y-51545948D01*
X54854282Y-51259352D01*
X54914800Y-50955104D01*
X54914800Y-50644896D01*
X54854282Y-50340648D01*
X54735570Y-50054052D01*
X54563227Y-49796123D01*
X54343877Y-49576773D01*
X54273876Y-49530000D01*
X54343877Y-49483227D01*
X54563227Y-49263877D01*
X54735570Y-49005948D01*
X54854282Y-48719352D01*
X54914800Y-48415104D01*
X54914800Y-48104896D01*
X54854282Y-47800648D01*
X54735570Y-47514052D01*
X54563227Y-47256123D01*
X54343877Y-47036773D01*
X54273876Y-46990000D01*
X54343877Y-46943227D01*
X54563227Y-46723877D01*
X54735570Y-46465948D01*
X54854282Y-46179352D01*
X54914800Y-45875104D01*
X54914800Y-45564896D01*
X54854282Y-45260648D01*
X54735570Y-44974052D01*
X54563227Y-44716123D01*
X54343877Y-44496773D01*
X54207286Y-44405505D01*
X54252871Y-44272476D01*
X53340000Y-43359605D01*
X52427129Y-44272476D01*
X52472714Y-44405505D01*
X52336123Y-44496773D01*
X52116773Y-44716123D01*
X51944430Y-44974052D01*
X51825718Y-45260648D01*
X51765200Y-45564896D01*
X51460000Y-45564896D01*
X51460000Y-43244977D01*
X51758916Y-43244977D01*
X51801973Y-43552184D01*
X51904135Y-43845086D01*
X51989277Y-44004377D01*
X52247524Y-44092871D01*
X53160395Y-43180000D01*
X53519605Y-43180000D01*
X54432476Y-44092871D01*
X54690723Y-44004377D01*
X54825597Y-43725024D01*
X54903381Y-43424725D01*
X54921084Y-43115023D01*
X54878027Y-42807816D01*
X54775865Y-42514914D01*
X54690723Y-42355623D01*
X54432476Y-42267129D01*
X53519605Y-43180000D01*
X53160395Y-43180000D01*
X52247524Y-42267129D01*
X51989277Y-42355623D01*
X51854403Y-42634976D01*
X51776619Y-42935275D01*
X51758916Y-43244977D01*
X51460000Y-43244977D01*
X51460000Y-37944896D01*
X51765200Y-37944896D01*
X51765200Y-38255104D01*
X51825718Y-38559352D01*
X51944430Y-38845948D01*
X52116773Y-39103877D01*
X52336123Y-39323227D01*
X52406124Y-39370000D01*
X52336123Y-39416773D01*
X52116773Y-39636123D01*
X51944430Y-39894052D01*
X51825718Y-40180648D01*
X51765200Y-40484896D01*
X51765200Y-40795104D01*
X51825718Y-41099352D01*
X51944430Y-41385948D01*
X52116773Y-41643877D01*
X52336123Y-41863227D01*
X52472714Y-41954495D01*
X52427129Y-42087524D01*
X53340000Y-43000395D01*
X54252871Y-42087524D01*
X54207286Y-41954495D01*
X54343877Y-41863227D01*
X54563227Y-41643877D01*
X54735570Y-41385948D01*
X54854282Y-41099352D01*
X54914800Y-40795104D01*
X54914800Y-40484896D01*
X54854282Y-40180648D01*
X54735570Y-39894052D01*
X54563227Y-39636123D01*
X54343877Y-39416773D01*
X54273876Y-39370000D01*
X54343877Y-39323227D01*
X54563227Y-39103877D01*
X54735570Y-38845948D01*
X54854282Y-38559352D01*
X54914800Y-38255104D01*
X54914800Y-37944896D01*
X67005200Y-37944896D01*
X67005200Y-38255104D01*
X67065718Y-38559352D01*
X67184430Y-38845948D01*
X67356773Y-39103877D01*
X67576123Y-39323227D01*
X67646124Y-39370000D01*
X67576123Y-39416773D01*
X67356773Y-39636123D01*
X67184430Y-39894052D01*
X67065718Y-40180648D01*
X67005200Y-40484896D01*
X67005200Y-40795104D01*
X67065718Y-41099352D01*
X67184430Y-41385948D01*
X67356773Y-41643877D01*
X67576123Y-41863227D01*
X67646124Y-41910000D01*
X67576123Y-41956773D01*
X67356773Y-42176123D01*
X67184430Y-42434052D01*
X67065718Y-42720648D01*
X67005200Y-43024896D01*
X67005200Y-43335104D01*
X67065718Y-43639352D01*
X67184430Y-43925948D01*
X67356773Y-44183877D01*
X67576123Y-44403227D01*
X67646124Y-44450000D01*
X67576123Y-44496773D01*
X67356773Y-44716123D01*
X67184430Y-44974052D01*
X67065718Y-45260648D01*
X67005200Y-45564896D01*
X67005200Y-45875104D01*
X67065718Y-46179352D01*
X67184430Y-46465948D01*
X67356773Y-46723877D01*
X67576123Y-46943227D01*
X67646124Y-46990000D01*
X67576123Y-47036773D01*
X67356773Y-47256123D01*
X67184430Y-47514052D01*
X67065718Y-47800648D01*
X67005200Y-48104896D01*
X67005200Y-48415104D01*
X67065718Y-48719352D01*
X67184430Y-49005948D01*
X67356773Y-49263877D01*
X67576123Y-49483227D01*
X67646124Y-49530000D01*
X67576123Y-49576773D01*
X67356773Y-49796123D01*
X67184430Y-50054052D01*
X67065718Y-50340648D01*
X67005200Y-50644896D01*
X67005200Y-50955104D01*
X67065718Y-51259352D01*
X67184430Y-51545948D01*
X67356773Y-51803877D01*
X67576123Y-52023227D01*
X67646124Y-52070000D01*
X67576123Y-52116773D01*
X67356773Y-52336123D01*
X67184430Y-52594052D01*
X67065718Y-52880648D01*
X67005200Y-53184896D01*
X67005200Y-53495104D01*
X67065718Y-53799352D01*
X67184430Y-54085948D01*
X67356773Y-54343877D01*
X67576123Y-54563227D01*
X67646124Y-54610000D01*
X67576123Y-54656773D01*
X67356773Y-54876123D01*
X67184430Y-55134052D01*
X67065718Y-55420648D01*
X67005200Y-55724896D01*
X67005200Y-56035104D01*
X67065718Y-56339352D01*
X67184430Y-56625948D01*
X67356773Y-56883877D01*
X67576123Y-57103227D01*
X67646124Y-57150000D01*
X67576123Y-57196773D01*
X67356773Y-57416123D01*
X67184430Y-57674052D01*
X67065718Y-57960648D01*
X67005200Y-58264896D01*
X67005200Y-58575104D01*
X67065718Y-58879352D01*
X67184430Y-59165948D01*
X67356773Y-59423877D01*
X67576123Y-59643227D01*
X67646124Y-59690000D01*
X67576123Y-59736773D01*
X67356773Y-59956123D01*
X67184430Y-60214052D01*
X67065718Y-60500648D01*
X67005200Y-60804896D01*
X67005200Y-61115104D01*
X67065718Y-61419352D01*
X67184430Y-61705948D01*
X67356773Y-61963877D01*
X67576123Y-62183227D01*
X67646124Y-62230000D01*
X67576123Y-62276773D01*
X67356773Y-62496123D01*
X67184430Y-62754052D01*
X67065718Y-63040648D01*
X67005200Y-63344896D01*
X67005200Y-63655104D01*
X67065718Y-63959352D01*
X67184430Y-64245948D01*
X67356773Y-64503877D01*
X67576123Y-64723227D01*
X67646124Y-64770000D01*
X67576123Y-64816773D01*
X67356773Y-65036123D01*
X67184430Y-65294052D01*
X67065718Y-65580648D01*
X67005200Y-65884896D01*
X67005200Y-66195104D01*
X67065718Y-66499352D01*
X67184430Y-66785948D01*
X67356773Y-67043877D01*
X67576123Y-67263227D01*
X67834052Y-67435570D01*
X68120648Y-67554282D01*
X68424896Y-67614800D01*
X68735104Y-67614800D01*
X69039352Y-67554282D01*
X69325948Y-67435570D01*
X69583877Y-67263227D01*
X69803227Y-67043877D01*
X69975570Y-66785948D01*
X70094282Y-66499352D01*
X70154800Y-66195104D01*
X70154800Y-65884896D01*
X70094282Y-65580648D01*
X69975570Y-65294052D01*
X69803227Y-65036123D01*
X69583877Y-64816773D01*
X69513876Y-64770000D01*
X69583877Y-64723227D01*
X69803227Y-64503877D01*
X69975570Y-64245948D01*
X70094282Y-63959352D01*
X70154800Y-63655104D01*
X70154800Y-63344896D01*
X70094282Y-63040648D01*
X69975570Y-62754052D01*
X69803227Y-62496123D01*
X69583877Y-62276773D01*
X69513876Y-62230000D01*
X69583877Y-62183227D01*
X69803227Y-61963877D01*
X69975570Y-61705948D01*
X70094282Y-61419352D01*
X70154800Y-61115104D01*
X70154800Y-60804896D01*
X70094282Y-60500648D01*
X69975570Y-60214052D01*
X69803227Y-59956123D01*
X69583877Y-59736773D01*
X69513876Y-59690000D01*
X69583877Y-59643227D01*
X69803227Y-59423877D01*
X69975570Y-59165948D01*
X70094282Y-58879352D01*
X70154800Y-58575104D01*
X70154800Y-58264896D01*
X70094282Y-57960648D01*
X69975570Y-57674052D01*
X69803227Y-57416123D01*
X69583877Y-57196773D01*
X69513876Y-57150000D01*
X69583877Y-57103227D01*
X69803227Y-56883877D01*
X69975570Y-56625948D01*
X70094282Y-56339352D01*
X70154800Y-56035104D01*
X70154800Y-55724896D01*
X70094282Y-55420648D01*
X69975570Y-55134052D01*
X69803227Y-54876123D01*
X69583877Y-54656773D01*
X69513876Y-54610000D01*
X69583877Y-54563227D01*
X69803227Y-54343877D01*
X69975570Y-54085948D01*
X70094282Y-53799352D01*
X70154800Y-53495104D01*
X70154800Y-53184896D01*
X70094282Y-52880648D01*
X69975570Y-52594052D01*
X69803227Y-52336123D01*
X69583877Y-52116773D01*
X69513876Y-52070000D01*
X69583877Y-52023227D01*
X69803227Y-51803877D01*
X69975570Y-51545948D01*
X70094282Y-51259352D01*
X70154800Y-50955104D01*
X70154800Y-50644896D01*
X70094282Y-50340648D01*
X69975570Y-50054052D01*
X69803227Y-49796123D01*
X69583877Y-49576773D01*
X69513876Y-49530000D01*
X69583877Y-49483227D01*
X69803227Y-49263877D01*
X69975570Y-49005948D01*
X70094282Y-48719352D01*
X70154800Y-48415104D01*
X70154800Y-48104896D01*
X70094282Y-47800648D01*
X69975570Y-47514052D01*
X69803227Y-47256123D01*
X69583877Y-47036773D01*
X69513876Y-46990000D01*
X69583877Y-46943227D01*
X69803227Y-46723877D01*
X69975570Y-46465948D01*
X70094282Y-46179352D01*
X70154800Y-45875104D01*
X70154800Y-45564896D01*
X70094282Y-45260648D01*
X69975570Y-44974052D01*
X69803227Y-44716123D01*
X69583877Y-44496773D01*
X69513876Y-44450000D01*
X69583877Y-44403227D01*
X69803227Y-44183877D01*
X69975570Y-43925948D01*
X70094282Y-43639352D01*
X70154800Y-43335104D01*
X70154800Y-43024896D01*
X70094282Y-42720648D01*
X69975570Y-42434052D01*
X69803227Y-42176123D01*
X69583877Y-41956773D01*
X69513876Y-41910000D01*
X69583877Y-41863227D01*
X69803227Y-41643877D01*
X69975570Y-41385948D01*
X70094282Y-41099352D01*
X70154800Y-40795104D01*
X70154800Y-40484896D01*
X70148723Y-40454344D01*
X76855000Y-40454344D01*
X76855000Y-40825656D01*
X76927439Y-41189834D01*
X77069534Y-41532882D01*
X77275825Y-41841618D01*
X77538382Y-42104175D01*
X77847118Y-42310466D01*
X78190166Y-42452561D01*
X78554344Y-42525000D01*
X78925656Y-42525000D01*
X79289834Y-42452561D01*
X79632882Y-42310466D01*
X79941618Y-42104175D01*
X80204175Y-41841618D01*
X80410466Y-41532882D01*
X80552561Y-41189834D01*
X80625000Y-40825656D01*
X80625000Y-40454344D01*
X80552561Y-40090166D01*
X80410466Y-39747118D01*
X80204175Y-39438382D01*
X79941618Y-39175825D01*
X79632882Y-38969534D01*
X79289834Y-38827439D01*
X78925656Y-38755000D01*
X78554344Y-38755000D01*
X78190166Y-38827439D01*
X77847118Y-38969534D01*
X77538382Y-39175825D01*
X77275825Y-39438382D01*
X77069534Y-39747118D01*
X76927439Y-40090166D01*
X76855000Y-40454344D01*
X70148723Y-40454344D01*
X70094282Y-40180648D01*
X69975570Y-39894052D01*
X69803227Y-39636123D01*
X69583877Y-39416773D01*
X69513876Y-39370000D01*
X69583877Y-39323227D01*
X69803227Y-39103877D01*
X69975570Y-38845948D01*
X70094282Y-38559352D01*
X70154800Y-38255104D01*
X70154800Y-37944896D01*
X70094282Y-37640648D01*
X69975570Y-37354052D01*
X69803227Y-37096123D01*
X69583877Y-36876773D01*
X69325948Y-36704430D01*
X69039352Y-36585718D01*
X68735104Y-36525200D01*
X68424896Y-36525200D01*
X68120648Y-36585718D01*
X67834052Y-36704430D01*
X67576123Y-36876773D01*
X67356773Y-37096123D01*
X67184430Y-37354052D01*
X67065718Y-37640648D01*
X67005200Y-37944896D01*
X54914800Y-37944896D01*
X54854282Y-37640648D01*
X54735570Y-37354052D01*
X54563227Y-37096123D01*
X54343877Y-36876773D01*
X54085948Y-36704430D01*
X53799352Y-36585718D01*
X53495104Y-36525200D01*
X53184896Y-36525200D01*
X52880648Y-36585718D01*
X52594052Y-36704430D01*
X52336123Y-36876773D01*
X52116773Y-37096123D01*
X51944430Y-37354052D01*
X51825718Y-37640648D01*
X51765200Y-37944896D01*
X51460000Y-37944896D01*
X51460000Y-34950000D01*
X85700001Y-34950000D01*
X85700000Y-100940000D01*
G37*
X85700000Y-100940000D02*
X51460000Y-100940000D01*
X51460000Y-93794344D01*
X76855000Y-93794344D01*
X76855000Y-94165656D01*
X76927439Y-94529834D01*
X77069534Y-94872882D01*
X77275825Y-95181618D01*
X77538382Y-95444175D01*
X77847118Y-95650466D01*
X78190166Y-95792561D01*
X78554344Y-95865000D01*
X78925656Y-95865000D01*
X79289834Y-95792561D01*
X79632882Y-95650466D01*
X79941618Y-95444175D01*
X80204175Y-95181618D01*
X80410466Y-94872882D01*
X80552561Y-94529834D01*
X80625000Y-94165656D01*
X80625000Y-93794344D01*
X80552561Y-93430166D01*
X80410466Y-93087118D01*
X80204175Y-92778382D01*
X79941618Y-92515825D01*
X79632882Y-92309534D01*
X79289834Y-92167439D01*
X78925656Y-92095000D01*
X78554344Y-92095000D01*
X78190166Y-92167439D01*
X77847118Y-92309534D01*
X77538382Y-92515825D01*
X77275825Y-92778382D01*
X77069534Y-93087118D01*
X76927439Y-93430166D01*
X76855000Y-93794344D01*
X51460000Y-93794344D01*
X51460000Y-85510000D01*
X73441928Y-85510000D01*
X73441928Y-87210000D01*
X73454188Y-87334482D01*
X73490498Y-87454180D01*
X73549463Y-87564494D01*
X73628815Y-87661185D01*
X73725506Y-87740537D01*
X73835820Y-87799502D01*
X73955518Y-87835812D01*
X74080000Y-87848072D01*
X75780000Y-87848072D01*
X75904482Y-87835812D01*
X76024180Y-87799502D01*
X76134494Y-87740537D01*
X76231185Y-87661185D01*
X76310537Y-87564494D01*
X76369502Y-87454180D01*
X76391513Y-87381620D01*
X76523368Y-87513475D01*
X76766589Y-87675990D01*
X77036842Y-87787932D01*
X77323740Y-87845000D01*
X77616260Y-87845000D01*
X77903158Y-87787932D01*
X78173411Y-87675990D01*
X78416632Y-87513475D01*
X78623475Y-87306632D01*
X78740000Y-87132240D01*
X78856525Y-87306632D01*
X79063368Y-87513475D01*
X79306589Y-87675990D01*
X79576842Y-87787932D01*
X79863740Y-87845000D01*
X80156260Y-87845000D01*
X80443158Y-87787932D01*
X80713411Y-87675990D01*
X80956632Y-87513475D01*
X81163475Y-87306632D01*
X81285195Y-87124466D01*
X81354822Y-87241355D01*
X81549731Y-87457588D01*
X81783080Y-87631641D01*
X82045901Y-87756825D01*
X82193110Y-87801476D01*
X82423000Y-87680155D01*
X82423000Y-86487000D01*
X82677000Y-86487000D01*
X82677000Y-87680155D01*
X82906890Y-87801476D01*
X83054099Y-87756825D01*
X83316920Y-87631641D01*
X83550269Y-87457588D01*
X83745178Y-87241355D01*
X83894157Y-86991252D01*
X83991481Y-86716891D01*
X83870814Y-86487000D01*
X82677000Y-86487000D01*
X82423000Y-86487000D01*
X82403000Y-86487000D01*
X82403000Y-86233000D01*
X82423000Y-86233000D01*
X82423000Y-85039845D01*
X82677000Y-85039845D01*
X82677000Y-86233000D01*
X83870814Y-86233000D01*
X83991481Y-86003109D01*
X83894157Y-85728748D01*
X83745178Y-85478645D01*
X83550269Y-85262412D01*
X83316920Y-85088359D01*
X83054099Y-84963175D01*
X82906890Y-84918524D01*
X82677000Y-85039845D01*
X82423000Y-85039845D01*
X82193110Y-84918524D01*
X82045901Y-84963175D01*
X81783080Y-85088359D01*
X81549731Y-85262412D01*
X81354822Y-85478645D01*
X81285195Y-85595534D01*
X81163475Y-85413368D01*
X80956632Y-85206525D01*
X80713411Y-85044010D01*
X80443158Y-84932068D01*
X80156260Y-84875000D01*
X79863740Y-84875000D01*
X79576842Y-84932068D01*
X79306589Y-85044010D01*
X79063368Y-85206525D01*
X78856525Y-85413368D01*
X78740000Y-85587760D01*
X78623475Y-85413368D01*
X78416632Y-85206525D01*
X78173411Y-85044010D01*
X77903158Y-84932068D01*
X77616260Y-84875000D01*
X77323740Y-84875000D01*
X77036842Y-84932068D01*
X76766589Y-85044010D01*
X76523368Y-85206525D01*
X76391513Y-85338380D01*
X76369502Y-85265820D01*
X76310537Y-85155506D01*
X76231185Y-85058815D01*
X76134494Y-84979463D01*
X76024180Y-84920498D01*
X75904482Y-84884188D01*
X75780000Y-84871928D01*
X74080000Y-84871928D01*
X73955518Y-84884188D01*
X73835820Y-84920498D01*
X73725506Y-84979463D01*
X73628815Y-85058815D01*
X73549463Y-85155506D01*
X73490498Y-85265820D01*
X73454188Y-85385518D01*
X73441928Y-85510000D01*
X51460000Y-85510000D01*
X51460000Y-70923400D01*
X56426205Y-70923400D01*
X56482630Y-71154621D01*
X56716808Y-71263017D01*
X56967633Y-71323645D01*
X57225465Y-71334174D01*
X57480398Y-71294200D01*
X57722633Y-71205259D01*
X57817370Y-71154621D01*
X57873795Y-70923400D01*
X57150000Y-70199605D01*
X56426205Y-70923400D01*
X51460000Y-70923400D01*
X51460000Y-70095465D01*
X55835826Y-70095465D01*
X55875800Y-70350398D01*
X55964741Y-70592633D01*
X56015379Y-70687370D01*
X56246600Y-70743795D01*
X56970395Y-70020000D01*
X57329605Y-70020000D01*
X58053400Y-70743795D01*
X58284621Y-70687370D01*
X58393017Y-70453192D01*
X58419066Y-70345424D01*
X58430342Y-70402113D01*
X58529093Y-70640518D01*
X58672456Y-70855077D01*
X58854923Y-71037544D01*
X59069482Y-71180907D01*
X59307887Y-71279658D01*
X59560976Y-71330000D01*
X59819024Y-71330000D01*
X60072113Y-71279658D01*
X60310518Y-71180907D01*
X60525077Y-71037544D01*
X60707544Y-70855077D01*
X60850907Y-70640518D01*
X60949658Y-70402113D01*
X60960000Y-70350120D01*
X60970342Y-70402113D01*
X61069093Y-70640518D01*
X61212456Y-70855077D01*
X61394923Y-71037544D01*
X61609482Y-71180907D01*
X61847887Y-71279658D01*
X62100976Y-71330000D01*
X62359024Y-71330000D01*
X62612113Y-71279658D01*
X62850518Y-71180907D01*
X63065077Y-71037544D01*
X63247544Y-70855077D01*
X63390907Y-70640518D01*
X63456928Y-70481130D01*
X63456928Y-70695000D01*
X63469188Y-70819482D01*
X63505498Y-70939180D01*
X63564463Y-71049494D01*
X63643815Y-71146185D01*
X63740506Y-71225537D01*
X63850820Y-71284502D01*
X63970518Y-71320812D01*
X64095000Y-71333072D01*
X65445000Y-71333072D01*
X65569482Y-71320812D01*
X65689180Y-71284502D01*
X65799494Y-71225537D01*
X65896185Y-71146185D01*
X65975537Y-71049494D01*
X66034502Y-70939180D01*
X66070812Y-70819482D01*
X66083072Y-70695000D01*
X66083072Y-69345000D01*
X66070812Y-69220518D01*
X66034502Y-69100820D01*
X65975537Y-68990506D01*
X65896185Y-68893815D01*
X65799494Y-68814463D01*
X65689180Y-68755498D01*
X65569482Y-68719188D01*
X65445000Y-68706928D01*
X64095000Y-68706928D01*
X63970518Y-68719188D01*
X63850820Y-68755498D01*
X63740506Y-68814463D01*
X63643815Y-68893815D01*
X63564463Y-68990506D01*
X63505498Y-69100820D01*
X63469188Y-69220518D01*
X63456928Y-69345000D01*
X63456928Y-69558870D01*
X63390907Y-69399482D01*
X63247544Y-69184923D01*
X63065077Y-69002456D01*
X62850518Y-68859093D01*
X62612113Y-68760342D01*
X62359024Y-68710000D01*
X62100976Y-68710000D01*
X61847887Y-68760342D01*
X61609482Y-68859093D01*
X61394923Y-69002456D01*
X61212456Y-69184923D01*
X61069093Y-69399482D01*
X60970342Y-69637887D01*
X60960000Y-69689880D01*
X60949658Y-69637887D01*
X60850907Y-69399482D01*
X60707544Y-69184923D01*
X60525077Y-69002456D01*
X60310518Y-68859093D01*
X60072113Y-68760342D01*
X59819024Y-68710000D01*
X59560976Y-68710000D01*
X59307887Y-68760342D01*
X59069482Y-68859093D01*
X58854923Y-69002456D01*
X58672456Y-69184923D01*
X58529093Y-69399482D01*
X58430342Y-69637887D01*
X58421512Y-69682280D01*
X58335259Y-69447367D01*
X58284621Y-69352630D01*
X58053400Y-69296205D01*
X57329605Y-70020000D01*
X56970395Y-70020000D01*
X56246600Y-69296205D01*
X56015379Y-69352630D01*
X55906983Y-69586808D01*
X55846355Y-69837633D01*
X55835826Y-70095465D01*
X51460000Y-70095465D01*
X51460000Y-69116600D01*
X56426205Y-69116600D01*
X57150000Y-69840395D01*
X57873795Y-69116600D01*
X57817370Y-68885379D01*
X57583192Y-68776983D01*
X57332367Y-68716355D01*
X57074535Y-68705826D01*
X56819602Y-68745800D01*
X56577367Y-68834741D01*
X56482630Y-68885379D01*
X56426205Y-69116600D01*
X51460000Y-69116600D01*
X51460000Y-45564896D01*
X51765200Y-45564896D01*
X51765200Y-45875104D01*
X51825718Y-46179352D01*
X51944430Y-46465948D01*
X52116773Y-46723877D01*
X52336123Y-46943227D01*
X52406124Y-46990000D01*
X52336123Y-47036773D01*
X52116773Y-47256123D01*
X51944430Y-47514052D01*
X51825718Y-47800648D01*
X51765200Y-48104896D01*
X51765200Y-48415104D01*
X51825718Y-48719352D01*
X51944430Y-49005948D01*
X52116773Y-49263877D01*
X52336123Y-49483227D01*
X52406124Y-49530000D01*
X52336123Y-49576773D01*
X52116773Y-49796123D01*
X51944430Y-50054052D01*
X51825718Y-50340648D01*
X51765200Y-50644896D01*
X51765200Y-50955104D01*
X51825718Y-51259352D01*
X51944430Y-51545948D01*
X52116773Y-51803877D01*
X52336123Y-52023227D01*
X52406124Y-52070000D01*
X52336123Y-52116773D01*
X52116773Y-52336123D01*
X51944430Y-52594052D01*
X51825718Y-52880648D01*
X51765200Y-53184896D01*
X51765200Y-53495104D01*
X51825718Y-53799352D01*
X51944430Y-54085948D01*
X52116773Y-54343877D01*
X52336123Y-54563227D01*
X52406124Y-54610000D01*
X52336123Y-54656773D01*
X52116773Y-54876123D01*
X51944430Y-55134052D01*
X51825718Y-55420648D01*
X51765200Y-55724896D01*
X51765200Y-56035104D01*
X51825718Y-56339352D01*
X51944430Y-56625948D01*
X52116773Y-56883877D01*
X52336123Y-57103227D01*
X52406124Y-57150000D01*
X52336123Y-57196773D01*
X52116773Y-57416123D01*
X51944430Y-57674052D01*
X51825718Y-57960648D01*
X51765200Y-58264896D01*
X51765200Y-58575104D01*
X51825718Y-58879352D01*
X51944430Y-59165948D01*
X52116773Y-59423877D01*
X52336123Y-59643227D01*
X52406124Y-59690000D01*
X52336123Y-59736773D01*
X52116773Y-59956123D01*
X51944430Y-60214052D01*
X51825718Y-60500648D01*
X51765200Y-60804896D01*
X51765200Y-61115104D01*
X51825718Y-61419352D01*
X51944430Y-61705948D01*
X52116773Y-61963877D01*
X52336123Y-62183227D01*
X52406124Y-62230000D01*
X52336123Y-62276773D01*
X52116773Y-62496123D01*
X51944430Y-62754052D01*
X51825718Y-63040648D01*
X51765200Y-63344896D01*
X51765200Y-63655104D01*
X51825718Y-63959352D01*
X51944430Y-64245948D01*
X52116773Y-64503877D01*
X52336123Y-64723227D01*
X52406124Y-64770000D01*
X52336123Y-64816773D01*
X52116773Y-65036123D01*
X51944430Y-65294052D01*
X51825718Y-65580648D01*
X51765200Y-65884896D01*
X51765200Y-66195104D01*
X51825718Y-66499352D01*
X51944430Y-66785948D01*
X52116773Y-67043877D01*
X52336123Y-67263227D01*
X52594052Y-67435570D01*
X52880648Y-67554282D01*
X53184896Y-67614800D01*
X53495104Y-67614800D01*
X53799352Y-67554282D01*
X54085948Y-67435570D01*
X54343877Y-67263227D01*
X54563227Y-67043877D01*
X54735570Y-66785948D01*
X54854282Y-66499352D01*
X54914800Y-66195104D01*
X54914800Y-65884896D01*
X54854282Y-65580648D01*
X54735570Y-65294052D01*
X54563227Y-65036123D01*
X54343877Y-64816773D01*
X54273876Y-64770000D01*
X54343877Y-64723227D01*
X54563227Y-64503877D01*
X54735570Y-64245948D01*
X54854282Y-63959352D01*
X54914800Y-63655104D01*
X54914800Y-63344896D01*
X54854282Y-63040648D01*
X54735570Y-62754052D01*
X54563227Y-62496123D01*
X54343877Y-62276773D01*
X54273876Y-62230000D01*
X54343877Y-62183227D01*
X54563227Y-61963877D01*
X54735570Y-61705948D01*
X54854282Y-61419352D01*
X54914800Y-61115104D01*
X54914800Y-60804896D01*
X54854282Y-60500648D01*
X54735570Y-60214052D01*
X54563227Y-59956123D01*
X54343877Y-59736773D01*
X54273876Y-59690000D01*
X54343877Y-59643227D01*
X54563227Y-59423877D01*
X54735570Y-59165948D01*
X54854282Y-58879352D01*
X54914800Y-58575104D01*
X54914800Y-58264896D01*
X54854282Y-57960648D01*
X54735570Y-57674052D01*
X54563227Y-57416123D01*
X54343877Y-57196773D01*
X54273876Y-57150000D01*
X54343877Y-57103227D01*
X54563227Y-56883877D01*
X54735570Y-56625948D01*
X54854282Y-56339352D01*
X54914800Y-56035104D01*
X54914800Y-55724896D01*
X54854282Y-55420648D01*
X54735570Y-55134052D01*
X54563227Y-54876123D01*
X54343877Y-54656773D01*
X54273876Y-54610000D01*
X54343877Y-54563227D01*
X54563227Y-54343877D01*
X54735570Y-54085948D01*
X54854282Y-53799352D01*
X54914800Y-53495104D01*
X54914800Y-53184896D01*
X54854282Y-52880648D01*
X54735570Y-52594052D01*
X54563227Y-52336123D01*
X54343877Y-52116773D01*
X54273876Y-52070000D01*
X54343877Y-52023227D01*
X54563227Y-51803877D01*
X54735570Y-51545948D01*
X54854282Y-51259352D01*
X54914800Y-50955104D01*
X54914800Y-50644896D01*
X54854282Y-50340648D01*
X54735570Y-50054052D01*
X54563227Y-49796123D01*
X54343877Y-49576773D01*
X54273876Y-49530000D01*
X54343877Y-49483227D01*
X54563227Y-49263877D01*
X54735570Y-49005948D01*
X54854282Y-48719352D01*
X54914800Y-48415104D01*
X54914800Y-48104896D01*
X54854282Y-47800648D01*
X54735570Y-47514052D01*
X54563227Y-47256123D01*
X54343877Y-47036773D01*
X54273876Y-46990000D01*
X54343877Y-46943227D01*
X54563227Y-46723877D01*
X54735570Y-46465948D01*
X54854282Y-46179352D01*
X54914800Y-45875104D01*
X54914800Y-45564896D01*
X54854282Y-45260648D01*
X54735570Y-44974052D01*
X54563227Y-44716123D01*
X54343877Y-44496773D01*
X54207286Y-44405505D01*
X54252871Y-44272476D01*
X53340000Y-43359605D01*
X52427129Y-44272476D01*
X52472714Y-44405505D01*
X52336123Y-44496773D01*
X52116773Y-44716123D01*
X51944430Y-44974052D01*
X51825718Y-45260648D01*
X51765200Y-45564896D01*
X51460000Y-45564896D01*
X51460000Y-43244977D01*
X51758916Y-43244977D01*
X51801973Y-43552184D01*
X51904135Y-43845086D01*
X51989277Y-44004377D01*
X52247524Y-44092871D01*
X53160395Y-43180000D01*
X53519605Y-43180000D01*
X54432476Y-44092871D01*
X54690723Y-44004377D01*
X54825597Y-43725024D01*
X54903381Y-43424725D01*
X54921084Y-43115023D01*
X54878027Y-42807816D01*
X54775865Y-42514914D01*
X54690723Y-42355623D01*
X54432476Y-42267129D01*
X53519605Y-43180000D01*
X53160395Y-43180000D01*
X52247524Y-42267129D01*
X51989277Y-42355623D01*
X51854403Y-42634976D01*
X51776619Y-42935275D01*
X51758916Y-43244977D01*
X51460000Y-43244977D01*
X51460000Y-37944896D01*
X51765200Y-37944896D01*
X51765200Y-38255104D01*
X51825718Y-38559352D01*
X51944430Y-38845948D01*
X52116773Y-39103877D01*
X52336123Y-39323227D01*
X52406124Y-39370000D01*
X52336123Y-39416773D01*
X52116773Y-39636123D01*
X51944430Y-39894052D01*
X51825718Y-40180648D01*
X51765200Y-40484896D01*
X51765200Y-40795104D01*
X51825718Y-41099352D01*
X51944430Y-41385948D01*
X52116773Y-41643877D01*
X52336123Y-41863227D01*
X52472714Y-41954495D01*
X52427129Y-42087524D01*
X53340000Y-43000395D01*
X54252871Y-42087524D01*
X54207286Y-41954495D01*
X54343877Y-41863227D01*
X54563227Y-41643877D01*
X54735570Y-41385948D01*
X54854282Y-41099352D01*
X54914800Y-40795104D01*
X54914800Y-40484896D01*
X54854282Y-40180648D01*
X54735570Y-39894052D01*
X54563227Y-39636123D01*
X54343877Y-39416773D01*
X54273876Y-39370000D01*
X54343877Y-39323227D01*
X54563227Y-39103877D01*
X54735570Y-38845948D01*
X54854282Y-38559352D01*
X54914800Y-38255104D01*
X54914800Y-37944896D01*
X67005200Y-37944896D01*
X67005200Y-38255104D01*
X67065718Y-38559352D01*
X67184430Y-38845948D01*
X67356773Y-39103877D01*
X67576123Y-39323227D01*
X67646124Y-39370000D01*
X67576123Y-39416773D01*
X67356773Y-39636123D01*
X67184430Y-39894052D01*
X67065718Y-40180648D01*
X67005200Y-40484896D01*
X67005200Y-40795104D01*
X67065718Y-41099352D01*
X67184430Y-41385948D01*
X67356773Y-41643877D01*
X67576123Y-41863227D01*
X67646124Y-41910000D01*
X67576123Y-41956773D01*
X67356773Y-42176123D01*
X67184430Y-42434052D01*
X67065718Y-42720648D01*
X67005200Y-43024896D01*
X67005200Y-43335104D01*
X67065718Y-43639352D01*
X67184430Y-43925948D01*
X67356773Y-44183877D01*
X67576123Y-44403227D01*
X67646124Y-44450000D01*
X67576123Y-44496773D01*
X67356773Y-44716123D01*
X67184430Y-44974052D01*
X67065718Y-45260648D01*
X67005200Y-45564896D01*
X67005200Y-45875104D01*
X67065718Y-46179352D01*
X67184430Y-46465948D01*
X67356773Y-46723877D01*
X67576123Y-46943227D01*
X67646124Y-46990000D01*
X67576123Y-47036773D01*
X67356773Y-47256123D01*
X67184430Y-47514052D01*
X67065718Y-47800648D01*
X67005200Y-48104896D01*
X67005200Y-48415104D01*
X67065718Y-48719352D01*
X67184430Y-49005948D01*
X67356773Y-49263877D01*
X67576123Y-49483227D01*
X67646124Y-49530000D01*
X67576123Y-49576773D01*
X67356773Y-49796123D01*
X67184430Y-50054052D01*
X67065718Y-50340648D01*
X67005200Y-50644896D01*
X67005200Y-50955104D01*
X67065718Y-51259352D01*
X67184430Y-51545948D01*
X67356773Y-51803877D01*
X67576123Y-52023227D01*
X67646124Y-52070000D01*
X67576123Y-52116773D01*
X67356773Y-52336123D01*
X67184430Y-52594052D01*
X67065718Y-52880648D01*
X67005200Y-53184896D01*
X67005200Y-53495104D01*
X67065718Y-53799352D01*
X67184430Y-54085948D01*
X67356773Y-54343877D01*
X67576123Y-54563227D01*
X67646124Y-54610000D01*
X67576123Y-54656773D01*
X67356773Y-54876123D01*
X67184430Y-55134052D01*
X67065718Y-55420648D01*
X67005200Y-55724896D01*
X67005200Y-56035104D01*
X67065718Y-56339352D01*
X67184430Y-56625948D01*
X67356773Y-56883877D01*
X67576123Y-57103227D01*
X67646124Y-57150000D01*
X67576123Y-57196773D01*
X67356773Y-57416123D01*
X67184430Y-57674052D01*
X67065718Y-57960648D01*
X67005200Y-58264896D01*
X67005200Y-58575104D01*
X67065718Y-58879352D01*
X67184430Y-59165948D01*
X67356773Y-59423877D01*
X67576123Y-59643227D01*
X67646124Y-59690000D01*
X67576123Y-59736773D01*
X67356773Y-59956123D01*
X67184430Y-60214052D01*
X67065718Y-60500648D01*
X67005200Y-60804896D01*
X67005200Y-61115104D01*
X67065718Y-61419352D01*
X67184430Y-61705948D01*
X67356773Y-61963877D01*
X67576123Y-62183227D01*
X67646124Y-62230000D01*
X67576123Y-62276773D01*
X67356773Y-62496123D01*
X67184430Y-62754052D01*
X67065718Y-63040648D01*
X67005200Y-63344896D01*
X67005200Y-63655104D01*
X67065718Y-63959352D01*
X67184430Y-64245948D01*
X67356773Y-64503877D01*
X67576123Y-64723227D01*
X67646124Y-64770000D01*
X67576123Y-64816773D01*
X67356773Y-65036123D01*
X67184430Y-65294052D01*
X67065718Y-65580648D01*
X67005200Y-65884896D01*
X67005200Y-66195104D01*
X67065718Y-66499352D01*
X67184430Y-66785948D01*
X67356773Y-67043877D01*
X67576123Y-67263227D01*
X67834052Y-67435570D01*
X68120648Y-67554282D01*
X68424896Y-67614800D01*
X68735104Y-67614800D01*
X69039352Y-67554282D01*
X69325948Y-67435570D01*
X69583877Y-67263227D01*
X69803227Y-67043877D01*
X69975570Y-66785948D01*
X70094282Y-66499352D01*
X70154800Y-66195104D01*
X70154800Y-65884896D01*
X70094282Y-65580648D01*
X69975570Y-65294052D01*
X69803227Y-65036123D01*
X69583877Y-64816773D01*
X69513876Y-64770000D01*
X69583877Y-64723227D01*
X69803227Y-64503877D01*
X69975570Y-64245948D01*
X70094282Y-63959352D01*
X70154800Y-63655104D01*
X70154800Y-63344896D01*
X70094282Y-63040648D01*
X69975570Y-62754052D01*
X69803227Y-62496123D01*
X69583877Y-62276773D01*
X69513876Y-62230000D01*
X69583877Y-62183227D01*
X69803227Y-61963877D01*
X69975570Y-61705948D01*
X70094282Y-61419352D01*
X70154800Y-61115104D01*
X70154800Y-60804896D01*
X70094282Y-60500648D01*
X69975570Y-60214052D01*
X69803227Y-59956123D01*
X69583877Y-59736773D01*
X69513876Y-59690000D01*
X69583877Y-59643227D01*
X69803227Y-59423877D01*
X69975570Y-59165948D01*
X70094282Y-58879352D01*
X70154800Y-58575104D01*
X70154800Y-58264896D01*
X70094282Y-57960648D01*
X69975570Y-57674052D01*
X69803227Y-57416123D01*
X69583877Y-57196773D01*
X69513876Y-57150000D01*
X69583877Y-57103227D01*
X69803227Y-56883877D01*
X69975570Y-56625948D01*
X70094282Y-56339352D01*
X70154800Y-56035104D01*
X70154800Y-55724896D01*
X70094282Y-55420648D01*
X69975570Y-55134052D01*
X69803227Y-54876123D01*
X69583877Y-54656773D01*
X69513876Y-54610000D01*
X69583877Y-54563227D01*
X69803227Y-54343877D01*
X69975570Y-54085948D01*
X70094282Y-53799352D01*
X70154800Y-53495104D01*
X70154800Y-53184896D01*
X70094282Y-52880648D01*
X69975570Y-52594052D01*
X69803227Y-52336123D01*
X69583877Y-52116773D01*
X69513876Y-52070000D01*
X69583877Y-52023227D01*
X69803227Y-51803877D01*
X69975570Y-51545948D01*
X70094282Y-51259352D01*
X70154800Y-50955104D01*
X70154800Y-50644896D01*
X70094282Y-50340648D01*
X69975570Y-50054052D01*
X69803227Y-49796123D01*
X69583877Y-49576773D01*
X69513876Y-49530000D01*
X69583877Y-49483227D01*
X69803227Y-49263877D01*
X69975570Y-49005948D01*
X70094282Y-48719352D01*
X70154800Y-48415104D01*
X70154800Y-48104896D01*
X70094282Y-47800648D01*
X69975570Y-47514052D01*
X69803227Y-47256123D01*
X69583877Y-47036773D01*
X69513876Y-46990000D01*
X69583877Y-46943227D01*
X69803227Y-46723877D01*
X69975570Y-46465948D01*
X70094282Y-46179352D01*
X70154800Y-45875104D01*
X70154800Y-45564896D01*
X70094282Y-45260648D01*
X69975570Y-44974052D01*
X69803227Y-44716123D01*
X69583877Y-44496773D01*
X69513876Y-44450000D01*
X69583877Y-44403227D01*
X69803227Y-44183877D01*
X69975570Y-43925948D01*
X70094282Y-43639352D01*
X70154800Y-43335104D01*
X70154800Y-43024896D01*
X70094282Y-42720648D01*
X69975570Y-42434052D01*
X69803227Y-42176123D01*
X69583877Y-41956773D01*
X69513876Y-41910000D01*
X69583877Y-41863227D01*
X69803227Y-41643877D01*
X69975570Y-41385948D01*
X70094282Y-41099352D01*
X70154800Y-40795104D01*
X70154800Y-40484896D01*
X70148723Y-40454344D01*
X76855000Y-40454344D01*
X76855000Y-40825656D01*
X76927439Y-41189834D01*
X77069534Y-41532882D01*
X77275825Y-41841618D01*
X77538382Y-42104175D01*
X77847118Y-42310466D01*
X78190166Y-42452561D01*
X78554344Y-42525000D01*
X78925656Y-42525000D01*
X79289834Y-42452561D01*
X79632882Y-42310466D01*
X79941618Y-42104175D01*
X80204175Y-41841618D01*
X80410466Y-41532882D01*
X80552561Y-41189834D01*
X80625000Y-40825656D01*
X80625000Y-40454344D01*
X80552561Y-40090166D01*
X80410466Y-39747118D01*
X80204175Y-39438382D01*
X79941618Y-39175825D01*
X79632882Y-38969534D01*
X79289834Y-38827439D01*
X78925656Y-38755000D01*
X78554344Y-38755000D01*
X78190166Y-38827439D01*
X77847118Y-38969534D01*
X77538382Y-39175825D01*
X77275825Y-39438382D01*
X77069534Y-39747118D01*
X76927439Y-40090166D01*
X76855000Y-40454344D01*
X70148723Y-40454344D01*
X70094282Y-40180648D01*
X69975570Y-39894052D01*
X69803227Y-39636123D01*
X69583877Y-39416773D01*
X69513876Y-39370000D01*
X69583877Y-39323227D01*
X69803227Y-39103877D01*
X69975570Y-38845948D01*
X70094282Y-38559352D01*
X70154800Y-38255104D01*
X70154800Y-37944896D01*
X70094282Y-37640648D01*
X69975570Y-37354052D01*
X69803227Y-37096123D01*
X69583877Y-36876773D01*
X69325948Y-36704430D01*
X69039352Y-36585718D01*
X68735104Y-36525200D01*
X68424896Y-36525200D01*
X68120648Y-36585718D01*
X67834052Y-36704430D01*
X67576123Y-36876773D01*
X67356773Y-37096123D01*
X67184430Y-37354052D01*
X67065718Y-37640648D01*
X67005200Y-37944896D01*
X54914800Y-37944896D01*
X54854282Y-37640648D01*
X54735570Y-37354052D01*
X54563227Y-37096123D01*
X54343877Y-36876773D01*
X54085948Y-36704430D01*
X53799352Y-36585718D01*
X53495104Y-36525200D01*
X53184896Y-36525200D01*
X52880648Y-36585718D01*
X52594052Y-36704430D01*
X52336123Y-36876773D01*
X52116773Y-37096123D01*
X51944430Y-37354052D01*
X51825718Y-37640648D01*
X51765200Y-37944896D01*
X51460000Y-37944896D01*
X51460000Y-34950000D01*
X85700001Y-34950000D01*
X85700000Y-100940000D01*
G04 #@! TD*
M02*
